<svg width="256" height="103" viewBox="0 0 256 103" fill="none" xmlns="http://www.w3.org/2000/svg">
<g filter="url(#filter0_d)">
<path fill-rule="evenodd" clip-rule="evenodd" d="M24.0319 60.032L16 52L23.7385 44.2615C27.0811 28.1266 41.3744 16 58.5 16H204.5C224.106 16 240 31.8939 240 51.5C240 71.1061 224.106 87 204.5 87H58.5C41.8351 87 27.8522 75.5171 24.0319 60.032Z" fill="white"/>
</g>
<path d="M54.3184 58H55.6367V46.1641H55.6855L63.9668 58H65.2852V43.9082H63.9668V55.7441H63.918L55.6367 43.9082H54.3184V58ZM71.252 58.1758C72.8926 58.1758 74.0254 57.3652 74.543 56.2715H74.5723V58H75.8711V47.8438H74.5723V53.8594C74.5723 55.7539 73.4004 57.0234 71.623 57.0234C69.9043 57.0234 68.9668 56.0176 68.9668 54.1328V47.8438H67.668V54.3477C67.668 56.7305 69.0059 58.1758 71.252 58.1758ZM78.0977 58H79.3867V51.6523C79.3867 50.0215 80.3047 48.8984 81.75 48.8984C82.1895 48.8984 82.5508 48.9668 82.7168 49.0352V47.7754C82.5605 47.7266 82.2578 47.6582 81.916 47.6582C80.6562 47.6582 79.7188 48.4004 79.3574 49.6113H79.3184V47.8438H78.0977V58ZM92.8535 58.2246C95.6367 58.2246 97.6777 56.4961 97.6777 54.1621V54.1426C97.6777 52.1406 96.2617 50.832 94.1621 50.666V50.627C95.959 50.2656 97.1699 49.0449 97.1699 47.3066V47.2871C97.1699 45.1875 95.4023 43.6836 92.8047 43.6836C90.2363 43.6836 88.498 45.207 88.2832 47.375L88.2734 47.4727H89.5625L89.5723 47.375C89.7285 45.8809 90.9883 44.8555 92.8047 44.8555C94.6602 44.8555 95.8223 45.8613 95.8223 47.4434V47.4629C95.8223 49.0156 94.5137 50.1289 92.6387 50.1289H90.998V51.2715H92.6973C94.9336 51.2715 96.3203 52.3262 96.3203 54.1719V54.1914C96.3203 55.8613 94.8848 57.0527 92.8535 57.0527C90.8027 57.0527 89.4746 55.959 89.2793 54.4355L89.2695 54.3477H87.9805L87.9902 54.4551C88.2051 56.623 90.0215 58.2246 92.8535 58.2246ZM107.785 58H109.123V45.1191H113.781V43.9082H103.137V45.1191H107.785V58ZM115.656 58.1855C117.16 58.1855 118.498 57.3555 119.055 56.1445H119.094V58H120.383V51.0469C120.383 48.9668 118.928 47.6582 116.604 47.6582C114.309 47.6582 112.863 48.9082 112.668 50.6562L112.658 50.7734H113.908L113.928 50.6758C114.143 49.5234 115.109 48.8105 116.584 48.8105C118.166 48.8105 119.094 49.6992 119.094 51.1641V52.043L115.93 52.2383C113.596 52.3945 112.287 53.4395 112.287 55.168V55.1875C112.287 56.9844 113.654 58.1855 115.656 58.1855ZM113.605 55.1875V55.168C113.605 54.0547 114.494 53.3613 116.086 53.2637L119.094 53.0586V54.1816C119.094 55.8027 117.697 57.0527 115.92 57.0527C114.543 57.0527 113.605 56.3008 113.605 55.1875ZM126.037 58.1855C128.264 58.1855 129.875 56.9648 129.875 55.2363V55.2266C129.875 53.8008 129.104 53.0098 127.082 52.5215L125.549 52.1602C124.211 51.8379 123.664 51.3203 123.664 50.5098V50.5C123.664 49.4648 124.582 48.752 125.959 48.752C127.375 48.752 128.273 49.5234 128.439 50.7051L128.449 50.7734H129.689L129.68 50.666C129.514 48.918 128.127 47.6582 125.959 47.6582C123.84 47.6582 122.346 48.8594 122.346 50.5488V50.5586C122.346 51.9648 123.264 52.8047 125.178 53.2637L126.711 53.6348C128.068 53.957 128.557 54.4355 128.557 55.3145V55.3242C128.557 56.3887 127.58 57.0918 126.047 57.0918C124.514 57.0918 123.566 56.3301 123.361 55.1582L123.342 55.0703H122.053L122.062 55.1582C122.258 56.9551 123.732 58.1855 126.037 58.1855ZM131.74 58H133.029V54.0645L134.162 53.0098L138.225 58H139.748L135.09 52.2188L139.65 47.8438H138.049L133.068 52.6289H133.029V43.9082H131.74V58ZM144.123 58.1855C146.35 58.1855 147.961 56.9648 147.961 55.2363V55.2266C147.961 53.8008 147.189 53.0098 145.168 52.5215L143.635 52.1602C142.297 51.8379 141.75 51.3203 141.75 50.5098V50.5C141.75 49.4648 142.668 48.752 144.045 48.752C145.461 48.752 146.359 49.5234 146.525 50.7051L146.535 50.7734H147.775L147.766 50.666C147.6 48.918 146.213 47.6582 144.045 47.6582C141.926 47.6582 140.432 48.8594 140.432 50.5488V50.5586C140.432 51.9648 141.35 52.8047 143.264 53.2637L144.797 53.6348C146.154 53.957 146.643 54.4355 146.643 55.3145V55.3242C146.643 56.3887 145.666 57.0918 144.133 57.0918C142.6 57.0918 141.652 56.3301 141.447 55.1582L141.428 55.0703H140.139L140.148 55.1582C140.344 56.9551 141.818 58.1855 144.123 58.1855ZM153.801 61.418H155.09V55.8809H155.129C155.686 57.2383 156.975 58.1855 158.596 58.1855C161.145 58.1855 162.883 56.1152 162.883 52.9316V52.9219C162.883 49.748 161.154 47.6582 158.576 47.6582C156.945 47.6582 155.695 48.6152 155.129 49.9922H155.09V47.8438H153.801V61.418ZM158.352 57.0332C156.447 57.0332 155.09 55.3828 155.09 52.9316V52.9219C155.09 50.4609 156.438 48.8105 158.352 48.8105C160.305 48.8105 161.564 50.4121 161.564 52.9219V52.9316C161.564 55.4219 160.305 57.0332 158.352 57.0332ZM164.621 58H165.91V51.6523C165.91 50.0215 166.828 48.8984 168.273 48.8984C168.713 48.8984 169.074 48.9668 169.24 49.0352V47.7754C169.084 47.7266 168.781 47.6582 168.439 47.6582C167.18 47.6582 166.242 48.4004 165.881 49.6113H165.842V47.8438H164.621V58ZM174.172 58.1855C176.936 58.1855 178.801 56.1543 178.801 52.9219V52.9023C178.801 49.6699 176.926 47.6582 174.172 47.6582C171.408 47.6582 169.543 49.6797 169.543 52.9023V52.9219C169.543 56.1445 171.398 58.1758 174.172 58.1855ZM174.182 57.0332C172.18 57.0234 170.871 55.5 170.871 52.9219V52.9023C170.871 50.3438 172.189 48.8105 174.172 48.8105C176.154 48.8105 177.482 50.334 177.482 52.9023V52.9219C177.482 55.4902 176.164 57.0332 174.182 57.0332ZM188.527 58H189.865V45.1191H194.523V43.9082H183.879V45.1191H188.527V58ZM196.398 58.1855C197.902 58.1855 199.24 57.3555 199.797 56.1445H199.836V58H201.125V51.0469C201.125 48.9668 199.67 47.6582 197.346 47.6582C195.051 47.6582 193.605 48.9082 193.41 50.6562L193.4 50.7734H194.65L194.67 50.6758C194.885 49.5234 195.852 48.8105 197.326 48.8105C198.908 48.8105 199.836 49.6992 199.836 51.1641V52.043L196.672 52.2383C194.338 52.3945 193.029 53.4395 193.029 55.168V55.1875C193.029 56.9844 194.396 58.1855 196.398 58.1855ZM194.348 55.1875V55.168C194.348 54.0547 195.236 53.3613 196.828 53.2637L199.836 53.0586V54.1816C199.836 55.8027 198.439 57.0527 196.662 57.0527C195.285 57.0527 194.348 56.3008 194.348 55.1875ZM207.512 61.6035C210.197 61.6035 211.877 60.0801 211.877 57.7363V47.8438H210.578V49.9922H210.549C209.992 48.6445 208.732 47.6582 207.111 47.6582C204.553 47.6582 202.785 49.7285 202.785 52.873V52.8828C202.785 56.0469 204.533 58.1172 207.092 58.1172C208.723 58.1172 210.012 57.1699 210.549 55.8418H210.578V57.6289C210.578 59.3574 209.445 60.4512 207.502 60.4512C205.949 60.4512 204.914 59.8457 204.572 59.0254L204.533 58.9375H203.234L203.254 59.0156C203.615 60.4512 205.1 61.6035 207.512 61.6035ZM207.346 56.9648C205.383 56.9648 204.113 55.3633 204.113 52.8828V52.873C204.113 50.4219 205.383 48.8105 207.346 48.8105C209.25 48.8105 210.578 50.4414 210.578 52.873V52.8828C210.578 55.3242 209.26 56.9648 207.346 56.9648Z" fill="black"/>
<defs>
<filter id="filter0_d" x="0" y="0" width="256" height="103" filterUnits="userSpaceOnUse" color-interpolation-filters="sRGB">
<feFlood flood-opacity="0" result="BackgroundImageFix"/>
<feColorMatrix in="SourceAlpha" type="matrix" values="0 0 0 0 0 0 0 0 0 0 0 0 0 0 0 0 0 0 127 0"/>
<feOffset/>
<feGaussianBlur stdDeviation="8"/>
<feColorMatrix type="matrix" values="0 0 0 0 0 0 0 0 0 0 0 0 0 0 0 0 0 0 0.12 0"/>
<feBlend mode="normal" in2="BackgroundImageFix" result="effect1_dropShadow"/>
<feBlend mode="normal" in="SourceGraphic" in2="effect1_dropShadow" result="shape"/>
</filter>
</defs>
</svg>
