<svg width="35" height="41" viewBox="0 0 35 41" fill="none" xmlns="http://www.w3.org/2000/svg">
<path d="M30.0446 5.23707H26.3946V4.53187C26.3946 4.2419 26.2775 3.96381 26.0691 3.75877C25.8607 3.55373 25.5781 3.43854 25.2834 3.43854C24.9888 3.43854 24.7061 3.55373 24.4978 3.75877C24.2894 3.96381 24.1723 4.2419 24.1723 4.53187V5.23707H11.4779V4.53187C11.4779 4.2419 11.3608 3.96381 11.1524 3.75877C10.9441 3.55373 10.6615 3.43854 10.3668 3.43854C10.0721 3.43854 9.78947 3.55373 9.5811 3.75877C9.37273 3.96381 9.25566 4.2419 9.25566 4.53187V5.23707H5.51122C4.19789 5.23707 2.93826 5.75007 2.00908 6.66336C1.07989 7.57666 0.557136 8.81555 0.555664 10.1079V31.7559C0.557136 33.0482 1.07989 34.2871 2.00908 35.2004C2.93826 36.1137 4.19789 36.6267 5.51122 36.6267H30.0446C31.3579 36.6267 32.6175 36.1137 33.5467 35.2004C34.4759 34.2871 34.9986 33.0482 35.0001 31.7559V10.1079C34.9986 8.81555 34.4759 7.57666 33.5467 6.66336C32.6175 5.75007 31.3579 5.23707 30.0446 5.23707ZM2.77789 10.1079C2.77789 9.39599 3.06528 8.71327 3.57683 8.2099C4.08839 7.70653 4.78221 7.42374 5.50566 7.42374H9.25011V8.1344C9.25011 8.42437 9.36717 8.70247 9.57555 8.90751C9.78392 9.11255 10.0665 9.22774 10.3612 9.22774C10.6559 9.22774 10.9385 9.11255 11.1469 8.90751C11.3553 8.70247 11.4723 8.42437 11.4723 8.1344V7.42374H24.1723V8.1344C24.1723 8.42437 24.2894 8.70247 24.4978 8.90751C24.7061 9.11255 24.9888 9.22774 25.2834 9.22774C25.5781 9.22774 25.8607 9.11255 26.0691 8.90751C26.2775 8.70247 26.3946 8.42437 26.3946 8.1344V7.42374H30.0446C30.4032 7.42302 30.7585 7.49192 31.0901 7.62648C31.4217 7.76105 31.7231 7.95865 31.977 8.20797C32.2309 8.45728 32.4323 8.75342 32.5697 9.07943C32.7071 9.40544 32.7779 9.75492 32.7779 10.1079V14.1423H2.77789V10.1079ZM30.0446 34.44H5.51122C5.15254 34.4407 4.79723 34.3718 4.46564 34.2373C4.13405 34.1027 3.83268 33.9051 3.5788 33.6558C3.32491 33.4065 3.12349 33.1103 2.98606 32.7843C2.84863 32.4583 2.77789 32.1088 2.77789 31.7559V16.3289H32.7779V31.7559C32.7779 32.1088 32.7071 32.4583 32.5697 32.7843C32.4323 33.1103 32.2309 33.4065 31.977 33.6558C31.7231 33.9051 31.4217 34.1027 31.0901 34.2373C30.7585 34.3718 30.4032 34.4407 30.0446 34.44Z" fill="#CCCCCC"/>
</svg>
